<svg width="154" height="154" viewBox="0 0 154 154" fill="none" xmlns="http://www.w3.org/2000/svg">
<rect width="154" height="154" fill="#1E1E1E"/>
<rect x="-157.845" y="-40" width="469" height="441.31" rx="24" fill="white"/>
<path fill-rule="evenodd" clip-rule="evenodd" d="M63.9987 9.36188C77.4747 8.76098 84.648 13.1058 91.222 17.7317C82.888 27.1983 81.9897 40.0095 85.4123 49.6311C92.9728 70.8829 120.816 78.7431 138.401 61.938C143.395 57.1649 146.104 51.0228 147.269 46.8223C150.045 54.6686 150.229 63.2293 147.747 71.2278C146.58 75.1196 144.913 78.3299 143.252 81.5257C141.469 84.9583 139.694 88.374 138.557 92.6C137.185 97.7014 138.256 102.206 139.381 106.94C140.973 113.635 142.674 120.788 137.729 130.737C133.455 139.334 122.874 143.265 113.339 143.52C104.282 143.761 95.1597 138.975 88.2102 135.328C85.7894 134.058 83.6331 132.927 81.834 132.194C73.4882 128.794 67.9642 133.331 62.0406 138.195L62.0401 138.196H62.0396L62.0384 138.197H62.0377L62.0373 138.198H62.0367L62.0364 138.199C61.1768 138.905 60.3086 139.618 59.4224 140.314C54.538 144.152 27.7447 158.914 10.4016 130.597C6.38099 124.04 -0.474267 106.838 7.56531 89.8933C11.3998 81.8124 16.0651 77.8347 20.2143 74.2973C25.0607 70.1656 29.203 66.6341 30.4951 57.8646C30.99 54.5051 30.855 51.1018 30.7176 47.6373C30.4448 40.7603 30.1626 33.6426 34.7778 26.1493C37.8955 21.1668 42.1924 17.0289 47.2888 14.1011C52.3851 11.1732 58.124 9.54555 63.9987 9.36188ZM49.722 61.6783C50.9885 61.0682 52.9839 60.1072 53.5231 59.8837C53.5828 59.8652 53.6471 59.8666 53.706 59.8878C53.7649 59.909 53.8154 59.9487 53.8498 60.0009C53.8842 60.0532 53.9007 60.1153 53.8968 60.1778C53.8929 60.2403 53.8688 60.2998 53.8281 60.3474C53.4993 60.677 49.9808 62.6402 49.4442 62.9368C49.5742 63.1022 49.9829 63.3859 50.4458 63.7072C50.8371 63.9789 51.2673 64.2775 51.6005 64.5542C52.4776 65.2798 52.4872 65.3929 52.5058 65.6124C52.5075 65.6306 52.5091 65.6495 52.5112 65.6696C52.5147 65.6974 52.512 65.7256 52.5035 65.7523C52.495 65.779 52.4807 65.8036 52.4618 65.8242C52.4428 65.8448 52.4196 65.8611 52.3937 65.8719C52.3678 65.8826 52.3399 65.8876 52.3119 65.8865C52.2172 65.8821 52.1238 65.8627 52.0352 65.829C51.3597 65.4328 50.73 64.9909 50.1989 64.6182C49.5217 64.1429 49.0048 63.7801 48.7582 63.7685C48.5973 65.0178 48.5014 66.2746 48.4707 67.5338C48.4408 68.0175 48.4132 68.3203 48.2293 68.4537C48.15 68.5201 48.0518 68.5598 47.9487 68.5671C47.603 68.5671 47.5815 68.0842 47.5731 67.74C47.544 66.545 47.7088 64.3925 47.754 63.8306C47.6382 63.8812 47.452 63.974 47.1454 64.1372C46.0117 64.7371 45.3782 65.1062 45.0032 65.3248L45.0028 65.325C44.4736 65.6334 44.4594 65.6417 44.28 65.5753C44.2205 65.5554 44.1682 65.5185 44.1295 65.4692C44.0908 65.4198 44.0674 65.3603 44.0623 65.2978C44.0126 64.6985 45.6908 63.8049 46.8518 63.1869C47.0524 63.0801 47.2379 62.9813 47.396 62.8939L46.8357 62.5013C44.2101 60.6622 43.8556 60.4139 43.8692 60.1878C43.8713 60.1525 43.8825 60.1178 43.8953 60.0776L43.8967 60.073C44.1522 59.2708 45.5702 60.3327 46.7283 61.1999C47.2068 61.5583 47.6409 61.8834 47.9303 62.03C47.9257 61.764 47.9602 61.0067 48.1664 58.7177C48.2723 57.5407 48.2592 56.6374 48.2496 55.9701C48.2342 54.9087 48.2275 54.4444 48.7221 54.4251C48.8326 54.434 48.9377 54.4766 49.0231 54.5472C49.1086 54.6178 49.1702 54.713 49.1997 54.8198C49.2259 57.2425 49.1236 59.6649 48.8931 62.0768C49.0837 61.9857 49.3703 61.8476 49.7105 61.6838L49.7159 61.6812L49.7206 61.6789L49.722 61.6783ZM131.487 86.0974C131.53 86.0498 131.556 85.9893 131.562 85.9249C131.567 85.8605 131.551 85.7969 131.516 85.7425C131.481 85.688 131.429 85.6474 131.368 85.6259C131.307 85.6045 131.241 85.6045 131.18 85.6244C130.57 85.8766 128.113 87.0632 126.937 87.6305L126.936 87.6312L126.55 87.8175C126.781 85.4052 126.883 82.9829 126.857 80.5598C126.827 80.4533 126.765 80.3582 126.68 80.2877C126.594 80.2172 126.489 80.175 126.379 80.1658C125.885 80.185 125.892 80.6495 125.908 81.7089C125.917 82.3765 125.931 83.2803 125.824 84.4585C125.618 86.7459 125.584 87.504 125.589 87.77C125.299 87.6243 124.864 87.2978 124.384 86.9383C123.227 86.0713 121.81 85.0096 121.554 85.8137L121.552 85.8199C121.54 85.8597 121.528 85.8942 121.527 85.9295C121.512 86.1556 121.869 86.4048 124.532 88.2682L125.054 88.6339C124.91 88.7136 124.739 88.8033 124.553 88.9022C123.407 89.5108 121.669 90.4337 121.72 91.0386C121.732 91.1045 121.762 91.1666 121.807 91.2172C121.85 91.2678 121.908 91.3053 121.971 91.3268C122.035 91.3482 122.103 91.3521 122.169 91.3375C122.235 91.3237 122.296 91.2923 122.345 91.2471C122.538 91.0938 125.105 89.7032 125.488 89.52C125.485 89.5568 125.481 89.6013 125.477 89.6511L125.476 89.6565C125.388 90.643 125.093 93.9323 125.811 93.9323C126.016 93.9323 126.026 93.8081 126.091 92.9059V92.9051V92.9043H126.092C126.128 92.403 126.181 91.6633 126.295 90.5725C126.33 90.2452 126.363 89.474 126.363 89.474C126.5 89.5422 126.642 89.6365 126.854 89.7768C127.135 89.9623 127.537 90.2291 128.211 90.6238C128.346 90.6737 128.541 90.7243 128.638 90.6193C128.699 90.5541 128.692 90.4989 128.686 90.4368C128.684 90.4253 128.683 90.4138 128.682 90.4023C128.663 90.1425 128.581 90.0137 127.776 89.3475C127.514 89.1306 127.326 88.9873 127.169 88.8661C127.108 88.8202 127.051 88.7765 126.997 88.7343C127.344 88.5588 131.149 86.4347 131.487 86.0974ZM66.5128 23.3168C66.5266 23.3443 66.5348 23.3743 66.5368 23.405C66.5483 23.8795 62.6274 27.8257 60.9532 29.289C61.1621 29.5432 62.4527 30.7129 63.5787 31.7332L63.5846 31.7386C63.7747 31.9109 63.9599 32.0787 64.1344 32.2372C65.2651 33.2628 65.2428 33.3564 65.2122 33.4844C65.2021 33.5202 65.1833 33.5529 65.1574 33.5796C65.1317 33.6064 65.0996 33.6263 65.0642 33.6377C64.6373 33.758 61.2552 31.0621 60.235 30.0349C60.0639 30.7859 59.7987 33.6102 59.6203 35.5112C59.5253 36.5228 59.4548 37.2733 59.4362 37.3103C59.4231 37.3368 59.4041 37.3599 59.3805 37.3778C59.357 37.3957 59.3296 37.4079 59.3005 37.4134C59.2714 37.4189 59.2415 37.4176 59.213 37.4095C59.1846 37.4014 59.1583 37.3869 59.1365 37.3669C58.544 36.8302 58.8434 34.0943 59.0573 32.1412L59.0575 32.1392C59.1169 31.597 59.1696 31.1152 59.1948 30.7577C59.0372 30.8763 58.8086 31.0642 58.3936 31.4054C58.1885 31.5739 57.9379 31.7799 57.6279 32.0333C57.0017 32.5479 56.9664 32.6231 56.8784 32.8107C56.8595 32.8511 56.838 32.8968 56.8077 32.9531C56.472 33.5963 55.674 32.9502 56.0412 32.1928C56.2656 31.7307 56.385 31.633 58.0718 30.2524C58.3608 30.016 58.6957 29.7418 59.0851 29.4217C59.181 29.3427 59.2729 29.2668 59.3274 29.2162C59.2469 29.1465 55.2102 25.3329 55.1842 25.224C55.0929 24.8837 55.211 24.7442 55.3229 24.6874C55.9952 24.344 59.0445 27.4417 59.5512 27.9982C59.5581 27.9215 59.5642 27.828 59.5696 27.7406C59.5883 27.4361 59.6539 26.8372 59.7435 26.0195L59.7437 26.0175C59.8338 25.1951 59.948 24.1516 60.0633 22.9635L60.0635 22.9616C60.2311 21.2426 60.2412 21.1391 60.6052 21.0816C61.2142 20.9814 60.9605 23.3385 60.6579 26.1512C60.581 26.8652 60.501 27.6086 60.4312 28.3485C63.1278 26.1016 64.5083 24.7319 65.2762 23.9699C66.0542 23.1979 66.2036 23.0496 66.4563 23.2448C66.4797 23.2648 66.499 23.2893 66.5128 23.3168ZM96.9006 92.4873C96.0597 92.9419 96.0152 92.9611 95.8634 93.0247C95.7569 93.0699 95.5967 93.1381 95.0678 93.3965C94.7481 93.5528 94.3319 93.7667 93.9609 93.956C93.5454 94.1691 93.1874 94.3523 93.0885 94.393C93.1131 93.9836 93.2472 91.4211 93.182 91.1942C93.2242 91.0209 93.2487 90.8438 93.2533 90.6652C93.2556 90.5411 93.2104 90.4199 93.1269 90.328C93.0433 90.236 92.9276 90.1793 92.8034 90.1693C92.2484 90.1333 92.2269 90.7825 92.2292 91.336C92.2323 92.009 92.2047 92.3961 92.1794 92.7618C92.1541 93.1197 92.1303 93.4563 92.138 94.0189C92.0989 93.9982 92.0545 93.9744 92.0054 93.9484L91.9264 93.9062L91.9249 93.9054C91.1438 93.4854 89.4459 92.574 88.8924 92.9235C88.8349 92.9664 88.7897 93.0247 88.7629 93.0914C88.7353 93.1581 88.7276 93.2309 88.7391 93.3022C88.7506 93.3735 88.7813 93.4402 88.828 93.4946C88.874 93.5498 88.9354 93.5904 89.0036 93.6134C90.8287 94.4581 91.3316 94.7011 91.5853 94.8238C91.7325 94.8951 91.7954 94.9257 91.9855 95.01C91.8835 95.0775 91.7678 95.1488 91.6275 95.2354C91.3178 95.4263 90.8862 95.6915 90.2147 96.1599C89.3899 96.7394 89.9081 97.7397 90.3519 97.3304C90.887 96.8735 91.4726 96.4803 92.0982 96.1583C92.1234 98.9555 92.4009 99.2054 92.5075 99.3012C92.5351 99.328 92.5673 99.3495 92.6033 99.3633C92.6393 99.3771 92.6777 99.3832 92.716 99.3809C92.7551 99.3794 92.7926 99.3694 92.8271 99.3526C92.8616 99.3357 92.8923 99.3112 92.9168 99.282C93.0126 99.1609 92.9942 99.0114 92.9383 98.5607C92.9314 98.5063 92.9245 98.448 92.9168 98.3852C92.9452 98.2771 92.9667 97.673 92.9881 97.0537C93.0126 96.3584 93.0379 95.6432 93.0747 95.5896C93.1169 95.5934 93.1575 95.6064 93.1935 95.6287C93.9026 95.9782 94.4392 96.248 94.8485 96.4542C95.8857 96.9755 96.098 97.082 96.1931 97.0169C96.2176 97.0008 96.2337 96.9724 96.2551 96.9364L96.2674 96.9157C96.584 96.3615 95.1996 95.6302 94.3541 95.1825C94.2391 95.122 94.1341 95.066 94.0444 95.017C95.077 94.4604 96.0765 93.8464 97.0401 93.1772C97.605 92.6958 97.1497 92.3509 96.9006 92.4873ZM117.307 114.51C117.321 114.538 117.329 114.569 117.331 114.599C117.347 115.074 113.43 119.015 111.749 120.485C111.949 120.725 113.197 121.857 114.406 122.952L114.407 122.953L114.409 122.955C114.584 123.114 114.758 123.272 114.928 123.426C116.058 124.452 116.036 124.544 116.005 124.673C115.995 124.709 115.977 124.742 115.951 124.768C115.925 124.795 115.893 124.815 115.857 124.827C115.434 124.939 112.049 122.252 111.028 121.224C110.854 121.981 110.582 124.88 110.403 126.783V126.784C110.312 127.756 110.245 128.466 110.229 128.5C110.216 128.526 110.196 128.549 110.173 128.567C110.149 128.584 110.122 128.596 110.093 128.602C109.252 128.733 109.661 124.999 109.883 122.975L109.884 122.974V122.969C109.932 122.527 109.972 122.167 109.987 121.947C109.814 122.078 109.515 122.323 109.099 122.665L109.098 122.666L108.818 122.896C108.694 122.998 108.561 123.107 108.42 123.222C107.793 123.735 107.76 123.807 107.67 123.999C107.651 124.039 107.63 124.083 107.601 124.138C107.264 124.781 106.466 124.136 106.834 123.378C107.065 122.904 107.093 122.88 109.178 121.179L109.498 120.918L109.901 120.589L109.923 120.571C109.969 120.532 110.015 120.495 110.054 120.462C110.08 120.44 110.103 120.42 110.122 120.402C110.045 120.341 106.004 116.519 105.978 116.408C105.887 116.069 106.005 115.928 106.117 115.872C106.791 115.529 109.824 118.618 110.345 119.183C110.448 118.006 110.516 117.384 110.6 116.615C110.666 116.004 110.744 115.299 110.856 114.147C111.025 112.427 111.036 112.324 111.399 112.266C112.009 112.171 111.755 114.529 111.452 117.339C111.375 118.053 111.295 118.795 111.225 119.534C111.272 119.488 111.417 119.366 111.643 119.176C112.434 118.513 114.215 117.02 116.241 115L116.241 114.999C116.821 114.421 116.996 114.245 117.249 114.439C117.273 114.459 117.293 114.483 117.307 114.51ZM34.843 96.1254C35.0188 96.1139 35.2001 96.0234 35.4437 95.9023C36.2122 95.5198 37.6015 94.8291 41.4008 95.3128C41.7395 95.3259 41.9788 95.3703 42.1668 95.4056C42.5434 95.4761 42.7137 95.5075 43.0635 95.1695C43.551 94.7096 46.9139 90.2636 46.9614 90.1954C47.2442 89.8044 47.692 89.3084 48.1452 88.8056C49.1579 87.6826 50.1976 86.5305 49.4849 86.4607C48.1058 86.2262 46.697 86.2262 45.3179 86.4607C44.1945 86.6524 43.097 86.9735 42.047 87.4166C39.5692 88.6852 37.4477 90.5533 35.8755 92.8507C35.339 93.7054 34.8744 94.5992 34.4268 95.5029C34.3916 95.5712 34.3755 95.647 34.3798 95.7237C34.3841 95.7996 34.4087 95.8732 34.4513 95.9368C34.4938 96.0004 34.5526 96.0518 34.6214 96.0848C34.6903 96.1177 34.7668 96.1315 34.843 96.1254ZM48.8066 108.154C48.8761 108.192 48.9327 108.25 48.969 108.32C49.1856 108.799 48.2904 109.9 44.0818 115.081C41.2312 118.589 36.8602 123.97 30.2851 132.294C29.8532 132.84 29.5111 133.281 29.2369 133.633L29.2365 133.634C28.2452 134.911 28.1424 135.044 27.8981 134.893C27.8199 134.842 27.7401 134.74 27.8091 134.51C28.5044 132.231 47.8621 108.107 48.5788 108.107C48.6577 108.1 48.737 108.116 48.8066 108.154ZM34.5364 132.167C33.7951 133.074 34.564 133.883 35.0944 133.107C35.4401 132.486 37.8816 131.135 40.6235 131.233C40.9547 131.245 41.0398 131.362 40.9064 131.709C40.5606 132.602 38.6787 133.766 37.9138 134.239C37.7444 134.344 37.6297 134.415 37.5987 134.441C37.4607 134.536 37.3485 134.664 37.2723 134.813C37.1962 134.963 37.1584 135.128 37.1627 135.296C37.1668 135.463 37.2128 135.627 37.2963 135.773C37.3798 135.918 37.4982 136.04 37.6409 136.128C37.817 136.257 37.9962 136.382 38.1682 136.503C38.7825 136.933 39.306 137.299 39.2737 137.544C39.2108 138.018 37.4746 138.739 34.2911 139.906C33.7645 140.099 33.8434 140.749 35.0921 140.749C36.4604 140.654 37.7846 140.225 38.9494 139.501C42.282 137.649 40.0657 136.28 38.8954 135.557C38.6531 135.406 38.4555 135.285 38.3615 135.192C38.3841 135.176 38.4515 135.14 38.5531 135.085C39.256 134.707 41.6005 133.447 42.1597 131.89C43.2896 128.741 36.4114 129.877 34.5364 132.167ZM22.5015 124.017C23.4061 120.487 26.1503 117.967 27.7141 121.146C28.8041 123.361 27.9571 126.111 27.0066 126.031C26.9416 126.029 26.8779 126.012 26.8208 125.981C26.7637 125.95 26.7147 125.906 26.6777 125.852C26.6294 125.727 26.6086 125.593 26.6168 125.459C26.625 125.326 26.662 125.194 26.7252 125.076C27.4167 123.035 26.4132 120.397 25.4834 121.221C24.2508 122.317 23.2788 124.882 23.7142 125.873C23.8997 126.297 23.8921 126.925 23.4482 127.063C22.858 127.25 22.6595 126.787 22.4862 126.381C21.9757 125.198 20.9899 125.053 20.4165 125.538C19.739 126.239 19.3338 127.158 19.2736 128.131C19.2736 128.485 19.5285 128.701 19.7457 128.886C19.9581 129.067 20.1344 129.217 20.0018 129.434C19.9571 129.503 19.8904 129.554 19.8129 129.579C19.7353 129.604 19.6514 129.603 19.5749 129.575C19.1475 129.481 18.7681 129.237 18.5063 128.886C18.2444 128.536 18.1176 128.103 18.1491 127.667C18.1334 127.159 18.2385 126.655 18.4557 126.196C18.9486 124.877 19.5971 124.213 20.6243 123.973C21.2197 123.845 21.8417 123.957 22.3544 124.286L22.4249 124.318C22.4452 124.216 22.4708 124.116 22.5015 124.017ZM54.6131 113.526C54.2166 112.565 53.572 113.205 52.6336 114.137C52.2551 114.513 51.8287 114.937 51.3514 115.322C49.7808 116.586 45.0749 121.143 43.6277 122.548C38.6811 127.348 38.78 127.475 38.9302 127.668C38.9488 127.694 38.9733 127.715 39.0018 127.729C39.0301 127.744 39.0616 127.752 39.0935 127.751C39.959 127.751 54.098 114.474 54.597 113.703C54.6139 113.677 54.6241 113.647 54.6269 113.617C54.6297 113.586 54.625 113.554 54.6131 113.526ZM42.0131 107.736L42.0125 107.736C38.897 112.183 34.1311 118.985 33.4157 120.289C33.221 120.65 32.7243 120.551 32.8507 120.024C33.2501 118.379 42.5714 104.531 43.9902 103.402C44.0556 103.327 44.1449 103.277 44.243 103.259C44.3412 103.242 44.4423 103.259 44.5296 103.307C44.6168 103.355 44.6848 103.432 44.7223 103.524C44.7597 103.617 44.7643 103.72 44.7353 103.815C44.7154 103.878 43.5705 105.513 42.0131 107.736ZM82.1744 82.2616C80.7034 81.6629 79.3014 80.9071 77.9929 80.0079C75.7245 78.3598 73.7529 76.338 72.1625 74.0289C71.9118 73.6175 71.7165 73.2853 71.5605 73.0198C71.1601 72.3388 71.0184 72.0978 70.8644 72.0897C70.7801 72.0852 70.692 72.1507 70.5557 72.252L70.529 72.2719C62.875 76.842 56.0394 82.6609 50.3051 89.4863C49.1698 90.8661 49.179 90.9006 49.4082 91.2938C52.7243 97.0023 60.783 103.297 66.4877 106.527C66.9039 106.766 67.0327 106.764 71.1736 101.732C75.9211 95.9644 79.8211 89.5484 82.7547 82.6786C82.7539 82.3244 82.619 82.3183 82.4435 82.3114C82.3599 82.3075 82.2671 82.3037 82.1744 82.2616ZM69.0112 92.4712C66.5636 92.1401 65.1516 91.5322 63.7611 89.474C60.3484 84.4148 65.9166 77.6278 71.8336 80.3391C77.5314 82.9499 76.4421 92.1079 69.0112 92.4712ZM64.3114 107.647C65.1546 108.118 65.3234 108.212 65.0704 108.492L65.0026 108.566C64.3317 109.295 61.6693 112.189 60.6642 112.472C56.5831 111.801 48.7865 105.063 46.1312 101.312C45.2921 100.276 44.6367 99.1034 44.1934 97.8463L44.1557 97.7589L44.1227 97.6822C43.9289 97.2338 43.8894 97.1426 44.0017 96.9908C45.0412 95.5926 47.258 92.8783 47.2757 92.8614C47.6773 92.3953 47.9137 92.7449 48.6154 93.782C49.7074 95.3949 51.9259 98.6734 57.6456 103.133C61.2078 105.913 63.272 107.066 64.3114 107.647ZM86.7185 67.4403C86.7101 67.2804 86.6679 67.1241 86.5936 66.9821C86.5192 66.8402 86.4157 66.7159 86.2892 66.6178C86.1628 66.5197 86.0163 66.4501 85.86 66.4137C85.7044 66.3773 85.5426 66.375 85.3855 66.4071C81.4048 66.867 78.4957 67.7163 72.8907 70.6023C72.5841 70.7611 72.6002 70.8768 73.1345 71.6756C75.415 75.0791 77.6464 77.9489 82.3561 79.9972C82.5768 80.093 82.7692 80.1781 82.9371 80.2517C84.0133 80.7246 84.0915 80.7591 84.1958 80.5721C86.2202 76.8443 86.9883 69.7784 86.7185 67.4403ZM65.8173 90.2406C65.1426 89.7032 64.6099 89.0087 64.2655 88.2184C63.8511 87.2495 63.7353 86.1786 63.933 85.143C64.1307 84.1074 64.6329 83.1546 65.3752 82.4064C66.1175 81.6575 67.0663 81.1478 68.1001 80.9416C69.1338 80.7354 70.2056 80.8427 71.1782 81.2489C71.9717 81.587 72.6702 82.1144 73.213 82.7843C73.7558 83.4543 74.1262 84.2469 74.292 85.0932C74.4578 85.9395 74.4138 86.8141 74.1639 87.6389C73.914 88.4645 73.4659 89.2165 72.8586 89.8289C72.2512 90.4406 71.5033 90.8952 70.68 91.152C69.8566 91.4088 68.983 91.4594 68.1353 91.3007C67.2877 91.142 66.4918 90.7779 65.8173 90.2406ZM72.9169 87.2955C73.1775 86.5895 73.2369 85.8245 73.0885 85.0871C72.9614 84.4662 72.691 83.8828 72.2989 83.3846C71.9068 82.8863 71.4038 82.4869 70.8299 82.2171C70.2561 81.9473 69.6272 81.8154 68.9934 81.8323C68.3596 81.8484 67.7383 82.0124 67.1791 82.3114C66.5166 82.6686 65.9662 83.2021 65.5893 83.8529C65.2124 84.5045 65.0237 85.248 65.0444 86C65.065 86.752 65.2942 87.4841 65.7063 88.1134C66.1184 88.7427 66.6972 89.2456 67.3783 89.566C68.0594 89.8857 68.816 90.0098 69.5637 89.9255C70.3113 89.8404 71.0207 89.5491 71.6128 89.0854C72.2049 88.6209 72.6564 88.0007 72.9169 87.2955ZM71.12 105.391C70.7573 105.32 70.2657 105.94 69.528 106.869C69.0697 107.447 68.5164 108.143 67.8399 108.869C67.8169 108.894 67.8231 108.887 67.8308 108.878C67.865 108.84 67.9281 108.77 65.5502 111.322C65.2793 111.612 65.0671 111.818 64.8651 112.014C64.5271 112.343 64.2176 112.643 63.7105 113.259C63.34 113.701 63.5154 114.173 63.7402 114.779C63.8446 115.06 63.9596 115.37 64.0355 115.718C64.1433 116.211 64.2195 116.551 64.2735 116.792C64.3723 117.232 64.3967 117.34 64.4035 117.449C64.4058 117.485 64.4061 117.521 64.4066 117.569C64.4082 117.734 64.4114 118.043 64.5 118.985C64.5168 120.138 64.2694 120.739 64.1128 121.12C63.9684 121.47 63.9013 121.633 64.1896 121.867C64.5557 122.166 64.5897 122.139 66.6392 120.538L66.71 120.483C72.9697 115.582 72.4499 105.648 71.12 105.391ZM68.4784 84.5305C69.2063 84.158 69.9738 83.8698 70.7666 83.6697C70.9069 83.6429 71.0013 83.5992 71.0762 83.5639C71.2292 83.4919 71.3001 83.4589 71.5117 83.6927C71.9455 84.191 72.5918 85.1898 71.9647 85.3875C69.7188 86.0974 69.7193 86.0981 69.9134 86.3994C69.968 86.4837 70.0379 86.5926 70.0775 86.7474C70.1094 86.8647 70.1064 86.9881 70.069 87.1039C70.0315 87.2188 69.9613 87.3208 69.8667 87.3967C69.2082 87.8252 68.5011 88.1747 67.7602 88.4361C67.1699 88.5856 66.5421 88.4147 66.0638 87.0962C65.9664 86.8287 66.0999 86.798 66.4929 86.7075C66.814 86.634 67.3082 86.5213 67.9909 86.2062C68.8135 85.8283 68.6312 85.5447 68.4459 85.2572C68.3018 85.0334 68.156 84.8065 68.4784 84.5305Z" fill="#FF6636"/>
<path d="M142.945 19.2067C132.504 4.69052 113.36 2.09882 98.5686 10.3998C76.5111 22.7773 76.4636 58.7308 103.202 69.5951C113.174 73.647 126.907 72.8445 136.053 65.5806C141.031 61.6268 144.402 56.2456 146.375 52.3661C151.217 41.0104 148.799 27.3451 142.945 19.2067ZM147.973 42.9414C147.896 45.9232 145.38 55.2675 138.401 61.938C120.816 78.7431 92.9727 70.8829 85.4123 49.631C81.0146 37.2689 83.7504 19.6413 100.225 10.6075C118.407 0.637775 143.028 9.75971 147.304 31.7474C148.114 35.4204 148.34 39.1981 147.973 42.9414Z" fill="#FF6636"/>
<path d="M118.939 48.8936C116.67 48.0765 114.504 49.7046 113.316 51.5651C110.84 55.4476 111.691 60.9936 116.336 60.7131C117.684 60.7131 120.305 58.5123 121.138 55.3656C121.953 52.291 120.726 49.5368 118.939 48.8936ZM120.832 53.7543C120.562 57.0505 118.149 59.6675 116.644 59.9634C115.668 60.1543 118.1 58.2386 118.496 54.2296C118.972 49.3566 115.94 50.0657 116.561 49.5015C116.935 49.286 117.371 49.2049 117.797 49.2715C119.093 48.991 121.068 50.8989 120.832 53.7543Z" fill="#FF6636"/>
<path d="M99.8401 40.1204C97.8471 37.9212 94.0442 38.2148 92.1263 43.1199C90.3702 47.6104 94.4873 53.9283 99.4584 48.4743C101.171 46.5962 101.66 42.1319 99.8401 40.1204ZM98.5056 39.9273C97.8938 40.1402 97.3511 40.5144 96.9349 41.0104C96.1308 41.895 95.5712 42.9736 95.3106 44.1402C95.2707 44.4277 95.0806 44.6768 95.0607 44.9735C95.004 45.6733 94.7794 47.4877 95.2753 48.4229C95.5053 48.856 95.6532 49.3527 96.1262 49.6164C96.2979 49.7123 96.2557 49.9139 96.1262 49.91C95.5513 49.9812 94.9679 49.8923 94.4398 49.6532C91.9584 48.183 92.0581 43.924 93.5874 41.7999C95.8433 38.1282 99.0099 39.613 98.5056 39.9273Z" fill="#FF6636"/>
<path d="M114.007 21.7501C112.463 20.772 108.948 21.1453 107.041 21.8099C102.493 23.3936 100.112 26.8829 102.832 28.8484C105.147 30.5217 110.678 28.9817 113.065 27.3528C115.835 25.4617 115.872 22.9321 114.007 21.7501ZM103.215 27.234C102.909 27.7116 103.021 27.9845 102.728 27.6548C102.172 27.0301 102.438 26.0803 103.29 25.0823C106.208 21.6627 112.097 21.2304 113.757 22.3718C114.188 22.677 114.484 23.1367 114.584 23.655C114.684 24.1732 114.579 24.7101 114.293 25.1536C114.172 25.3345 113.618 24.8707 113.334 24.6392C111.32 22.9965 104.82 24.732 103.215 27.234Z" fill="#FF6636"/>
<path d="M127.692 37.9588C129.597 37.4721 129.733 35.5963 129.875 33.6408C129.675 31.624 129.508 29.7084 127.83 28.5364C124.538 26.2375 122.986 37.1087 127.692 37.9588ZM126.649 28.9572C127.394 28.6468 128.29 29.5291 128.548 30.2144C130.196 34.5837 128.689 37.4966 127.574 37.331C127.368 37.2996 127.312 37.2229 127.411 37.0382C128.147 35.6584 128.373 32.4918 127.15 30.071C126.872 29.5206 126.427 29.4639 126.453 29.0967C126.452 28.9588 126.568 28.9909 126.649 28.9572Z" fill="#FF6636"/>
<path d="M95.9349 21.123C96.0721 19.6666 95.0649 19.0127 93.9634 19.3055C91.5871 19.9372 89.2345 23.8082 89.4744 25.9745C89.8884 29.7107 94.8579 26.8706 95.9349 21.123ZM91.1585 25.7124C91.0336 26.1054 90.9876 26.5195 91.0236 26.9304C90.9769 27.2033 90.4012 27.0071 90.2119 26.5356C89.1992 24.0328 93.7472 18.5727 95.0657 20.0414C95.997 21.0778 93.9496 19.6857 91.4966 24.6875C91.3824 24.9205 91.2521 25.474 91.1585 25.7124Z" fill="#FF6636"/>
<path d="M134.822 47.7192C133.737 49.2914 133.315 51.6194 134.786 52.5301C136.557 53.6255 139.532 51.3205 139.757 48.2374C139.962 45.4357 136.734 44.9466 134.822 47.7192ZM138.232 50.6781C136.981 52.1637 135.861 52.317 135.69 52.2572C135.349 52.1369 135.407 51.9199 135.614 51.8233C136.283 51.3863 136.826 50.783 137.192 50.0725C138.827 47.3735 137.355 46.5311 138.123 46.5027C139.153 46.4652 139.666 48.9825 138.232 50.6781Z" fill="#FF6636"/>
<path d="M142.885 31.1825C141.364 31.4891 139.63 34.7324 140.569 37.482C141.821 41.1454 145.462 38.3942 145.251 34.3859C145.115 31.7352 143.823 30.9924 142.885 31.1825ZM142.097 38.5575C141.299 38.2754 142.262 37.8339 142.518 36.8711C142.549 36.7561 143.571 34.0724 142.532 32.5784C142.211 32.1185 142.19 32.1453 142.532 31.9291C142.713 31.8455 142.909 31.8032 143.107 31.8053C143.305 31.8073 143.501 31.8537 143.679 31.941C143.857 32.0283 144.013 32.1543 144.136 32.3098C144.26 32.4653 144.346 32.6464 144.391 32.8398C145.368 36.6319 143.268 38.9668 142.097 38.5575Z" fill="#FF6636"/>
<path d="M126.523 13.8117C124.467 15.1148 130.351 20.0537 132.587 18.4301C133.634 17.6705 132.297 15.9841 131.063 15.0121C129.987 14.1643 127.772 13.0206 126.523 13.8117ZM132.014 18.0499C131.707 18.2262 131.567 18.2699 131.025 17.5195C129.992 16.3727 128.696 15.4939 127.248 14.9584C126.979 14.894 126.62 14.9921 126.711 14.6334C126.831 14.1574 127.069 14.2072 127.567 14.1949C129.788 14.1405 133.265 17.3393 132.014 18.0499Z" fill="#FF6636"/>
<path d="M125.057 62.3305C124.929 62.5311 124.855 62.7612 124.841 62.9986C124.828 63.236 124.876 63.4729 124.98 63.6866C125.58 64.5696 127.348 64.6332 128.7 64.4255C129.661 64.2783 129.849 64.0507 130.056 63.5394C131.092 61.0213 126.417 60.7422 125.057 62.3305ZM129.537 62.6832C129.409 64.2538 128.874 62.1849 126.205 63.0273C126.043 63.0787 125.768 63.2688 125.592 63.3056C125.018 63.4229 125.592 61.3892 128.664 62.0078C128.917 62.0592 129.584 62.4279 129.537 62.6832Z" fill="#FF6636"/>
<path d="M99.5817 59.0144C98.8236 60.1282 101.435 63.6827 103.317 63.3899C106.235 62.9338 101.261 56.5477 99.5817 59.0144ZM102.626 62.5015C102.506 62.2616 102.371 62.0299 102.221 61.8077C101.864 61.2068 101.41 60.6692 100.878 60.2164C100.476 59.8285 100.102 59.9435 100.126 59.4835C100.138 59.2367 100.183 59.1838 100.443 59.1769C101.882 59.1302 102.984 60.7606 103.6 62.2201C103.838 62.7805 102.85 63.1392 102.626 62.5015Z" fill="#FF6636"/>
<path d="M114.33 12.1062C119.562 12.4818 117.286 6.97643 112.778 9.72072C111.474 10.5141 111.549 11.9069 114.33 12.1062ZM116.586 10.0365C116.869 10.2849 116.715 10.5647 116.475 10.8031C116.035 11.2423 116.192 10.7832 115.349 10.7057C113.365 10.5233 113.733 11.5014 113.224 11.319C110.945 10.5018 115.239 8.84838 116.586 10.0342V10.0365Z" fill="#FF6636"/>
<path d="M115.147 36.6665C113.618 37.3725 113.581 37.9175 113.341 38.7308C113.207 39.1823 113.502 39.5441 113.805 39.8675C114.012 40.0875 114.333 40.0929 114.757 40.1665C115.207 40.1777 115.654 40.0888 116.066 39.9063C116.477 39.7237 116.844 39.4521 117.137 39.111C117.693 38.671 118.05 37.5687 117.625 37.0659C117.316 36.7321 116.904 36.5116 116.454 36.4392C116.005 36.3668 115.545 36.4468 115.147 36.6665ZM117.102 37.6929C117.102 38.6526 116.314 37.676 115.147 38.5161C114.499 38.9829 114.411 39.4361 114.208 39.328C113.824 39.1302 113.824 37.9949 115.147 37.3065C116.334 36.6879 117.232 37.1533 117.102 37.6929Z" fill="#FF6636"/>
</svg>
